# xmcd CD database file
#
# Track frame offsets:
#	180
#	20670
#	35274
#	53524
#	73722
#	98822
#	115715
#	138315
#	153328
#	170977
#	187984
#	205677
#	226326
#	244835
#	262966
#	263356
#	263733
#	264100
#	264478
#	264853
#	265230
#	265598
#	265975
#	266355
#	266731
#	267099
#	267478
#	268013
#
# Disc length: 3629 seconds
#
# Revision: 1
# Processed by: cddbd v1.5.2PL0 Copyright (c) Steve Scherf et al.
# Submitted via: CDex 2.09
#
DISCID=8b0e2b1c
DTITLE=Will Ray - Invisible Birds
DYEAR=1996
DGENRE=country
TTITLE0=When The U-Haul Pulled Away
TTITLE1=That's History
TTITLE2=Folsom Prison Blues
TTITLE3=Invisible Birds
TTITLE4=Lucky Man
TTITLE5=Bless Me Father
TTITLE6=Gaylord's Dock
TTITLE7=Nagged To Death
TTITLE8=East Of Jesus
TTITLE9=Changes
TTITLE10=Wishful Thinking
TTITLE11=Flamethrower
TTITLE12=Come Dance With Me
TTITLE13=Slippery When Wet
TTITLE14=Dummy 1 (4 seconds silence)
TTITLE15=Dummy 2 (4 seconds silence)
TTITLE16=Dummy 3 (4 seconds silence)
TTITLE17=Dummy 4 (4 seconds silence)
TTITLE18=Dummy 5 (4 seconds silence)
TTITLE19=Dummy 6 (4 seconds silence)
TTITLE20=Dummy 7 (4 seconds silence)
TTITLE21=Dummy 8 (4 seconds silence)
TTITLE22=Dummy 9 (4 seconds silence)
TTITLE23=Dummy 10 (4 seconds silence)
TTITLE24=Dummy 11 (4 seconds silence)
TTITLE25=Dummy 12 (4 seconds silence)
TTITLE26=Dummy 13 (4 seconds silence)
TTITLE27=Invisible Birds (Reprise)
EXTD=YEAR: 1996
EXTT0=
EXTT1=
EXTT2=
EXTT3=
EXTT4=
EXTT5=
EXTT6=
EXTT7=
EXTT8=
EXTT9=
EXTT10=
EXTT11=
EXTT12=
EXTT13=
EXTT14=
EXTT15=
EXTT16=
EXTT17=
EXTT18=
EXTT19=
EXTT20=
EXTT21=
EXTT22=
EXTT23=
EXTT24=
EXTT25=
EXTT26=
EXTT27=
PLAYORDER=
